# xmcd
#
# Track frame offsets:
#	150
#	18944
#	32781
#	52451
#	68760
#	85324
#	106169
#	118387
#	137653
#	151366
#
# Disc length: 2183 seconds
# Revision: 0
# Processed by: cddbd v1.5.2PL0 Copyright (c) Steve Scherf et al.
# Submitted via: dBpowerAMP V12.0
#
DISCID=8908850a
DTITLE=Various Artist - 5 Albums Incontournables CD3 Souvenirs de Vacances (1978)
DYEAR=2014
DGENRE=Country
TTITLE0=Renée Martel - René Simard - Souvenirs de vacances
TTITLE1=René Simard - Hey, Julie veux-tu sortir ce soir ?
TTITLE2=Renée Martel - Un homme, une femme
TTITLE3=René Simard - De Québec en Californie
TTITLE4=Renée Martel - Tu n'es plus là
TTITLE5=Renée Martel - René Simard - Sur la route de Babylone
TTITLE6=Renée Martel - J'ai besoin de ton amour
TTITLE7=René Simard - You're my everything
TTITLE8=Renée Martel - Hopelessly devoted to you
TTITLE9=René Simard - Ma petite amie
EXTD=
EXTT0=
EXTT1=
EXTT2=
EXTT3=
EXTT4=
EXTT5=
EXTT6=
EXTT7=
EXTT8=
EXTT9=
PLAYORDER=
